<?xml version="1.0" encoding="utf-8"?>
<!-- Generator: Adobe Illustrator 21.1.0, SVG Export Plug-In . SVG Version: 6.00 Build 0)  -->
<svg version="1.1" id="Logo" xmlns="http://www.w3.org/2000/svg" xmlns:xlink="http://www.w3.org/1999/xlink" x="0px" y="0px"
	 viewBox="0 0 1000 360" style="enable-background:new 0 0 1000 360;" xml:space="preserve">
<style type="text/css">
	.st0{fill:#575756;}
	.st1{fill:#C0D137;}
	.st2{fill:#C1D230;}
</style>
<g>
	<path class="st0" d="M339.9,123.2c0-7.4,13.3-7.7,13.3,0v100.6c0,8.8-12.1,9.6-15.8,3.5l-65.6-87.8l1.4,24.2v61.9
		c0,8.6-13.3,8.8-13.3,0V125.2c0-8.8,9.8-10.2,14.2-3.7l67.5,90.3l-1.8-26.5V123.2z"/>
	<path class="st0" d="M375.1,172.8c0-27.5,18.6-51,46.4-55.4c6.5-0.9,12.4-0.7,18.6,0c27,4.2,47.8,26.6,47.8,55.4
		c0,36.5-26.3,59.6-56.1,59.6C400.4,232.4,375.1,210,375.1,172.8z M388.3,173.4c0,28.7,18.9,47,43.6,47c23.7,0,43.1-17.5,43.1-47
		c0-22.6-14.9-40.7-36.5-44.2c-5.3-0.7-10.3-0.7-15.2,0C402.1,132.5,388.3,149.5,388.3,173.4z"/>
	<path class="st0" d="M586.9,118.9c8.6,0,8.6,12.1,0,12.1h-39.1c0,31.5,0.2,63.6,0.2,95.2c0,4.4-3.7,6.5-6.7,6.5
		c-3,0-6.3-2.1-6.3-6.5v-95.2h-38.9c-8.2,0-8.2-12.1,0-12.1H586.9z"/>
	<path class="st0" d="M604.9,201.1l-14.2,27.7c-3.2,6.5-14.7,1.9-11.6-5.1l52.9-104.3c1.1-2.3,3.5-3.3,5.8-3.3
		c2.3,0,4.4,1.1,5.6,3.3l52.8,103.8c4.6,7.5-8.4,11.9-11.7,5.1l-13.7-27.2H604.9z M637.9,134.8L610.2,190h55.2L637.9,134.8z"/>
	<path class="st1" d="M691.5,126c-3.3-7.5,8.8-12.4,12.3-4.9l45,89.7l44-89.4c2.8-7.2,14.7-3.3,12.1,4.6l-50.5,102.2
		c-2.5,4.6-8.8,5.6-11.7-0.5L691.5,126z"/>
	<path class="st1" d="M822.1,121.3c0-8.8,13.1-8.6,13.1,0v104.8c0,8.1-13.1,8.4-13.1,0V121.3z"/>
	<path class="st1" d="M865.4,202.8c4.6,14.5,24,17.7,38,17.7c14.9,0,38-4.6,38-22.3c0-15.2-18.4-16.5-37.7-18.1
		c-24.2-1.9-50.1-4.2-50.1-30.3c0-23.1,26.6-33.5,48-33.5c18.4,0,41.4,4.4,48.7,24.4c2.6,7-9.3,10.2-11.9,4.2
		c-5.3-13.3-24-15.6-36.6-15.6c-11.7,0-34.5,4.7-34.5,20.7c0,15.2,17.5,16.8,37.9,18.4c24,2.1,49.8,3.3,49.8,29.6
		c0,26.8-30,35.1-51.5,35.1c-17.9,0-45.2-6.1-51-27.2C850.3,198.3,864,195.6,865.4,202.8z"/>
</g>
<path class="st2" d="M210.2,117.2l-68.8-51.6c-6.4-4.8-15.3-4.8-21.7,0l-68.8,51.6c-4.5,3.4-7.2,8.8-7.2,14.4v82.3
	c0,5.7,2.7,11,7.2,14.4l68.8,51.6c6.4,4.8,15.3,4.8,21.7,0l68.8-51.6c4.5-3.4,7.2-8.8,7.2-14.4v-82.3
	C217.4,126,214.8,120.6,210.2,117.2z M130.6,221.1c-26.7,0-48.3-21.6-48.3-48.3s21.6-48.3,48.3-48.3s48.3,21.6,48.3,48.3
	S157.3,221.1,130.6,221.1z"/>
<g>
	<path class="st0" d="M575.9,266.9c-0.8-2.3,2.8-3.6,3.8-1.5c3.8,7.5,6.9,13.7,10.7,21.2l10.8-21.3c0.8-2,4.5-0.9,3.5,1.4l-12.6,25
		c-0.7,1.4-2.6,1.9-3.6,0.1L575.9,266.9z"/>
	<path class="st0" d="M613,260.6c0,2.4-4.1,2.5-4.1,0v-2.4c0-2.5,4.1-2.5,4.1,0V260.6z M609,266.5c0-2.3,4-2.4,4-0.1V291
		c0,2.4-4,2.3-4,0V266.5z"/>
	<path class="st0" d="M623.2,285.5c0.5,2.4,4.8,3.7,8.8,3.7c2.7,0,8.4-1.2,8.4-5c0-3.5-4.1-3.6-8.5-4c-5.9-0.5-12.2-1-12.2-7.7
		c0-5.8,6.6-8.3,11.9-8.3c4.2,0,10,0.7,11.9,5.6c0.8,2.4-3,3.5-3.7,1.4c-1.2-3.2-5.8-3.4-8.2-3.4c-3.2,0-7.9,1.4-7.9,4.7
		c0,3.5,4,3.4,8.4,3.8c6,0.5,12.4,1.1,12.4,7.9c0,6.9-7.8,8.5-12.4,8.5c-4.5,0-11.5-1.1-12.6-6.6C618.8,284,622.7,282.8,623.2,285.5
		z"/>
	<path class="st0" d="M654.2,260.6c0,2.4-4.1,2.5-4.1,0v-2.4c0-2.5,4.1-2.5,4.1,0V260.6z M650.2,266.5c0-2.3,4-2.4,4-0.1V291
		c0,2.4-4,2.3-4,0V266.5z"/>
	<path class="st0" d="M663.3,288c-2.4-2.9-3.5-6.4-3.3-10.4c0.5-6,4.1-11.1,10.1-12.8c1.3-0.4,2.8-0.5,4.1-0.5c1.3,0,2.6,0.1,4,0.5
		c5.9,1.7,9.6,6.7,10.1,12.8c0.2,4.1-0.9,7.6-3.3,10.4c-2.7,3.2-6.6,4.9-10.9,4.9C669.8,292.9,665.9,291.2,663.3,288z M674.1,268
		c-1,0-2.1,0.2-2.9,0.4c-4.6,1.2-7.2,5.4-7.2,10.3c0,2.4,0.8,5,2.4,6.9c1.9,2.3,4.8,3.6,7.8,3.6c2.9,0,5.9-1.4,7.8-3.6
		c1.5-1.9,2.4-4.5,2.4-6.8c0-5-2.7-9.3-7.3-10.4C676.2,268.1,675.1,268,674.1,268z"/>
	<path class="st0" d="M717.4,276.4c0-5-4-8.5-8.4-8.5c-5.3,0-10.2,4.4-10.2,10.3v12.6c0,1.2-0.7,1.9-2,1.9s-2.1-0.7-2.1-1.9v-24.4
		c0-2.5,3.9-2.6,3.9,0.1v3.4c2-4,6.1-5.7,10.4-5.7c6.3,0,12.4,4.4,12.4,12.2v14.4c0,1.2-0.7,1.9-2,1.9c-1.2,0-2-0.7-2-1.9V276.4z"/>
	<path class="st0" d="M750,268.7v22.2c0,2.4-4,2.4-4,0v-22.2h-2.9c-2.1,0-2.1-3.3,0.1-3.3h2.9v-1.2c0-7,8.3-10,13.3-6.1
		c1.9,1.6-0.6,4.2-2.2,2.8c-2.2-2.1-7.1-0.8-7.1,3.4v1.1h5.2c2,0,2,3.3,0,3.3H750z"/>
	<path class="st0" d="M762.5,288c-2.4-2.9-3.5-6.4-3.3-10.4c0.5-6,4.1-11.1,10.1-12.8c1.3-0.4,2.8-0.5,4.1-0.5c1.3,0,2.6,0.1,4,0.5
		c5.9,1.7,9.6,6.7,10.1,12.8c0.2,4.1-0.9,7.6-3.3,10.4c-2.7,3.2-6.6,4.9-10.9,4.9C769.1,292.9,765.2,291.2,762.5,288z M773.4,268
		c-1,0-2.1,0.2-2.9,0.4c-4.6,1.2-7.2,5.4-7.2,10.3c0,2.4,0.8,5,2.4,6.9c1.9,2.3,4.8,3.6,7.8,3.6c2.9,0,5.9-1.4,7.8-3.6
		c1.5-1.9,2.4-4.5,2.4-6.8c0-5-2.7-9.3-7.3-10.4C775.5,268.1,774.4,268,773.4,268z"/>
	<path class="st0" d="M797.7,269.2c1.7-3.6,5-4.6,8.1-4.6c1.3,0,2.1,0.7,2.1,1.9c0,1.2-0.8,1.9-2.1,1.9c-5.6,0-8,4.5-8,10v12.3
		c0,1.1-0.9,1.9-2,1.9c-1.2,0-2-0.8-2-1.9v-24.1c0-2.4,3.9-2.6,3.9,0V269.2z"/>
	<path class="st0" d="M825.6,274.5c0-8.5,5.8-15.8,14.4-17.2c2-0.3,3.9-0.2,5.8,0c8.4,1.3,14.9,8.3,14.9,17.2
		c0,11.3-8.2,18.5-17.4,18.5C833.4,293,825.6,286,825.6,274.5z M829.7,274.7c0,8.9,5.9,14.6,13.5,14.6c7.3,0,13.4-5.4,13.4-14.6
		c0-7-4.6-12.6-11.3-13.7c-1.6-0.2-3.2-0.2-4.7,0C834,262,829.7,267.3,829.7,274.7z"/>
	<path class="st0" d="M872.1,288.8h21.5c2.3,0,2.6,3.6,0,3.6h-22.9c-1.5,0-2.5-1.1-2.5-2.4v-29.9c0-1.3,1-2.3,2.5-2.3h23
		c2.3,0,2.2,3.5-0.1,3.5h-21.5v12.2h20.5c2.2,0,2.3,3.5,0,3.5h-20.5V288.8z"/>
	<path class="st0" d="M933.2,258.6c1.3-2,3.8-1.3,3.8,1v31.3c0,2.6-4,2.6-4,0v-24.8l-11.1,17.4c-0.9,1.6-2.9,1.6-3.8,0l-11.1-17.3
		v24.7c0,2.6-4,2.6-4,0v-31.3c0-2.3,2.6-2.9,3.7-1l13.3,20.7L933.2,258.6z"/>
	<path class="st0" d="M947.9,290.2c0,1.4-0.9,2.3-2.3,2.3c-1.4,0-2.4-0.9-2.4-2.3s1-2.3,2.4-2.3
		C946.9,287.9,947.9,288.8,947.9,290.2z"/>
</g>
</svg>
